<?xml version="1.0" encoding="utf-8"?>
<!-- Generator: Adobe Illustrator 24.2.3, SVG Export Plug-In . SVG Version: 6.00 Build 0)  -->
<svg version="1.1" id="Camada_1" xmlns="http://www.w3.org/2000/svg" xmlns:xlink="http://www.w3.org/1999/xlink" x="0px" y="0px"
	 viewBox="0 0 1000 858.3" style="enable-background:new 0 0 1000 858.3;" xml:space="preserve">
<style type="text/css">
	.st0{fill:#DAA520;}
	.st1{fill:#59440D;}
	.st2{display:none;fill:#FFFFFF;}
	.st3{font-family:'TypoRoundRegularDemo';}
	.st4{font-size:339.2673px;}
</style>
<image style="display:none;overflow:visible;enable-background:new    ;" width="300" height="253" xlink:href="C1328E31.png"  transform="matrix(3.2767 0 0 3.3924 8.5 0)">
</image>
<g>
	<path class="st0" d="M502,32.9c-121.2,0-219.5,98.3-219.5,219.5c0,70.7,33.4,133.5,85.3,173.7V241.6c0-37.1,13.1-68.9,39.4-95.1
		c26.3-26.1,57.9-39.1,94.9-39.1c37.1,0,68.8,13,94.9,39.1c26.3,26.3,39.4,58,39.4,95.1c0,37-13.1,68.6-39.4,94.9
		c-26.1,26.3-57.7,39.4-94.9,39.4h-84.7V455c26.1,10.9,54.7,17,84.7,17c121.2,0,219.5-98.3,219.5-219.5S623.2,32.9,502,32.9z"/>
	<path class="st0" d="M562,301.4c16.4-16.4,24.7-36.4,24.7-59.8s-8.2-43.4-24.7-60c-16.6-16.6-36.6-24.9-60-24.9s-43.4,8.3-60,24.9
		c-16.4,16.6-24.6,36.6-24.6,60v84.7H502C525.4,326.3,545.4,318,562,301.4z"/>
</g>
<g>
	<path class="st0" d="M142.9,585.2c13.4,13.4,20.1,29.6,20.1,48.5v57.2c0,3.2-1.1,5.9-3.4,8c-2.3,2.3-4.9,3.4-8.1,3.4h-0.4
		c-3.1,0-5.8-1.1-8.1-3.4c-2.3-2.2-3.4-4.9-3.4-8v-5.8c-13,11.5-28.1,17.2-45.4,17.2c-18.9,0-35.1-6.7-48.5-20.1
		c-13.4-13.4-20.1-29.6-20.1-48.5c0-18.9,6.7-35.1,20.1-48.5C59.3,571.8,75.5,565,94.4,565C113.3,565.1,129.5,571.8,142.9,585.2z
		 M62.2,601.7c-8.8,8.9-13.2,19.6-13.2,32.1c0,12.6,4.4,23.3,13.2,32.2c8.9,8.8,19.6,13.2,32.2,13.2s23.3-4.4,32.1-13.2
		c8.9-8.9,13.3-19.6,13.3-32.2c0-12.5-4.4-23.2-13.3-32.1c-8.8-8.9-19.5-13.3-32.1-13.3S71.1,592.8,62.2,601.7z"/>
	<path class="st0" d="M211.5,690.9c0,3.2-1.1,5.9-3.4,8c-2.3,2.3-4.9,3.4-8.1,3.4h-0.4c-3.1,0-5.8-1.1-8.1-3.4
		c-2.3-2.2-3.4-4.9-3.4-8v-68.8c0-15.8,5.6-29.2,16.7-40.4c11.1-11.2,24.6-16.7,40.4-16.7c15.7,0,29.1,5.6,40.2,16.7
		c11.1,11.2,16.7,24.6,16.7,40.4v68.8c0,3.2-1.1,5.9-3.4,8c-2.2,2.3-4.9,3.4-8,3.4h-0.3c-3.2,0-5.9-1.1-8.2-3.4
		c-2.3-2.2-3.4-4.9-3.4-8v-68.8c0-9.3-3.3-17.3-9.8-23.9c-6.6-6.6-14.6-9.9-23.9-9.9c-9.4,0-17.4,3.3-24,9.9
		c-6.5,6.6-9.8,14.6-9.8,23.9L211.5,690.9L211.5,690.9z"/>
	<path class="st0" d="M392.2,565.1c18.9,0,35.1,6.7,48.5,20.1s20.1,29.6,20.1,48.5c0,18.9-6.7,35.1-20.1,48.5
		c-13.4,13.4-29.6,20.1-48.5,20.1s-35.1-6.7-48.5-20.1c-13.4-13.4-20.1-29.6-20.1-48.5c0-18.9,6.7-35.1,20.1-48.5
		C357.1,571.8,373.3,565.1,392.2,565.1z M392.2,588.6c-12.6,0-23.3,4.4-32.2,13.3c-8.8,8.9-13.2,19.6-13.2,32.2
		c0,12.5,4.4,23.2,13.2,32.1c8.9,8.9,19.6,13.3,32.2,13.3s23.3-4.4,32.1-13.3c8.9-8.9,13.3-19.6,13.3-32.1
		c0-12.6-4.4-23.3-13.3-32.2C415.5,593,404.8,588.6,392.2,588.6z"/>
	<path class="st0" d="M494.1,513.5c3.1,0,5.8,1.1,8,3.3c2.3,2.3,3.4,5,3.4,8.2v40.1h22.6c3.1,0,5.8,1.1,8,3.4c2.3,2.3,3.4,5,3.4,8.2
		v0.3c0,3.2-1.1,5.9-3.4,8c-2.3,2.3-5,3.4-8,3.4h-22.6v78.3c0,3.4,1.2,6.4,3.6,8.8c2.4,2.4,5.4,3.7,8.9,3.7h10.1
		c3.1,0,5.8,1.1,8,3.4c2.3,2.3,3.4,5,3.4,8.2v0.3c0,3.2-1.1,5.9-3.4,8c-2.3,2.3-5,3.4-8,3.4h-10.1c-9.9,0-18.4-3.5-25.4-10.4
		c-7-7-10.4-15.5-10.4-25.3V525c0-3.2,1.1-5.9,3.4-8.2c2.3-2.2,4.9-3.3,8-3.3H494.1z"/>
	<path class="st0" d="M674.3,585.2c13.4,13.4,20.1,29.6,20.1,48.5v57.2c0,3.2-1.1,5.9-3.4,8c-2.3,2.3-5,3.4-8,3.4h-0.4
		c-3.1,0-5.8-1.1-8-3.4c-2.3-2.2-3.4-4.9-3.4-8v-5.8c-13,11.5-28.1,17.2-45.4,17.2c-18.9,0-35.1-6.7-48.5-20.1
		c-13.4-13.4-20.1-29.6-20.1-48.5c0-18.9,6.7-35.1,20.1-48.5c13.4-13.4,29.6-20.1,48.5-20.1C644.8,565.1,660.9,571.8,674.3,585.2z
		 M593.6,601.7c-8.8,8.9-13.2,19.6-13.2,32.1c0,12.6,4.4,23.3,13.2,32.2c8.9,8.8,19.6,13.2,32.2,13.2s23.3-4.4,32.1-13.2
		c8.9-8.9,13.3-19.6,13.3-32.2c0-12.5-4.4-23.2-13.3-32.1c-8.8-8.9-19.5-13.3-32.1-13.3S602.5,592.8,593.6,601.7z"/>
	<path class="st1" d="M912.7,690.9c0,3.2-1.1,5.9-3.4,8c-2.3,2.3-5,3.4-8,3.4h-0.4c-3.1,0-5.8-1.1-8-3.4c-2.3-2.2-3.4-4.9-3.4-8
		v-59.8h-76v59.8c0,3.2-1.1,5.9-3.4,8c-2.3,2.3-5,3.4-8,3.4h-0.4c-3.1,0-5.8-1.1-8-3.4c-2.3-2.2-3.4-4.9-3.4-8V574.8
		c0-16.9,6-31.4,18-43.4c12-11.9,26.4-17.8,43.3-17.8c16.9,0,31.4,6,43.4,17.8c12,12,18,26.4,18,43.4L912.7,690.9L912.7,690.9z
		 M889.5,607.9v-33.2c0-10.5-3.7-19.4-11.1-26.9c-7.5-7.5-16.5-11.2-27-11.2c-10.5,0-19.5,3.7-26.9,11.2
		c-7.4,7.5-11.1,16.4-11.1,26.9v33.2H889.5z"/>
	<path class="st1" d="M956,513.5c3.1,0,5.8,1.1,8,3.3c2.3,2.3,3.4,5,3.4,8.2v166c0,3.2-1.1,5.9-3.4,8c-2.3,2.3-5,3.4-8,3.4h-0.4
		c-3.1,0-5.8-1.1-8-3.4c-2.3-2.2-3.4-4.9-3.4-8V525c0-3.2,1.1-5.9,3.4-8.2c2.3-2.2,4.9-3.3,8-3.3H956z"/>
</g>
<g>
	<path class="st1" d="M14,761.7h17.2c10,0,18.1,7.6,18.1,17c0,9.2-8.2,16.7-18.1,16.7h-9.2v17.9H14V761.7z M41.3,778.7
		c0-4.9-4.5-8.9-10-8.9h-9.2v17.6l9.2,0C36.7,787.5,41.3,783.5,41.3,778.7z"/>
	<path class="st1" d="M53.3,787.6c0-14.7,12-26.8,26.7-26.8c14.7,0,26.7,12,26.7,26.8c0,14.6-12,26.6-26.7,26.6
		C65.3,814.1,53.3,802.2,53.3,787.6z M98.5,787.5c0-10.2-8.4-18.5-18.5-18.5c-10.2,0-18.5,8.3-18.5,18.5c0,10.1,8.3,18.4,18.5,18.4
		C90.1,805.9,98.5,797.7,98.5,787.5z"/>
	<path class="st1" d="M142.4,813.3l-13.9-20h-6.3v20h-8.1l0-51.6h16c9.6,0,17.5,7.4,17.5,16.6c0,6.7-4.3,12.4-10.2,14.4l15,20.6
		H142.4z M130.3,786.6c4.9,0,8.9-3.9,8.9-8.5c0-4.8-4.1-8.4-8.9-8.4h-8.1v16.9H130.3z"/>
	<path class="st1" d="M188.8,769.8H175v43.5h-8.1v-43.5h-13.8v-8h35.8V769.8z"/>
	<path class="st1" d="M221.4,805.5h-24.4l-3.5,7.8h-8.8l24.3-52.6h0.5l24.3,52.6h-8.8L221.4,805.5z M218.2,798.5l-9.1-20.2
		l-9.1,20.2H218.2z"/>
	<path class="st1" d="M270.5,805.2v8.1h-31.1v-51.6h8.1v43.5H270.5z"/>
	<path class="st1" d="M337.4,787.6c0,15.8-10.2,25.7-26.6,25.7h-14.7v-51.6h14.7C327.2,761.7,337.4,771.6,337.4,787.6z M329.2,787.5
		c0-10.9-7.1-17.8-18.4-17.8h-6.6v35.5h6.7C322.1,805.2,329.2,798.4,329.2,787.5z"/>
	<path class="st1" d="M352.9,769.7v13.2h19.5v8.1h-19.5v14.3h22.6v8.1h-30.7v-51.6h30.7v8H352.9z"/>
	<path class="st1" d="M452.1,789.2c0,15.3-11.1,25-24.5,25c-15,0-26.9-12-26.9-26.6c0-14.7,12-26.7,26.6-26.7
		c6.5,0,13.9,3.2,18.8,7.9l-4.5,6.7c-4-4-9.5-6.5-14.4-6.5c-9.4,0-18.3,7.9-18.3,18.6c0,10.1,8,18.4,19,18.4
		c8.9,0,15.5-5.4,15.5-13.3v-0.2h-16v-7.4h24.4C452,786.3,452.1,787.7,452.1,789.2z"/>
	<path class="st1" d="M467.7,769.7v13.2h19.5v8.1h-19.5v14.3h22.6v8.1h-30.7v-51.6h30.7v8H467.7z"/>
	<path class="st1" d="M527.1,813.3l-13.9-20h-6.3v20h-8.1l0-51.6h16c9.6,0,17.5,7.4,17.5,16.6c0,6.7-4.3,12.4-10.2,14.4l15,20.6
		H527.1z M514.9,786.6c4.9,0,8.9-3.9,8.9-8.5c0-4.8-4.1-8.4-8.9-8.4h-8.1v16.9H514.9z"/>
	<path class="st1" d="M550.5,769.7v13.2h19.5v8.1h-19.5v14.3h22.6v8.1h-30.7v-51.6h30.7v8H550.5z"/>
	<path class="st1" d="M623,761.6v52.6h-0.4l-33-34.5v33.6h-8.1v-52.5h0.4l32.9,34.4v-33.6H623z"/>
	<path class="st1" d="M630.5,787.5c0-14.5,12.1-26.7,26.6-26.7c6.7,0.1,12.9,2.9,17.9,7.9l-4.7,6.4c-3.6-3.6-8.3-6-13.4-6
		c-9.3,0-18.3,8.2-18.3,18.5c0,10.4,9.1,18.4,18.3,18.4c5.3,0,9.8-2.6,13.4-6.1l4.7,6.5c-4.4,4.4-10.1,7.7-17.8,7.7
		C642.6,814.1,630.5,802.1,630.5,787.5z"/>
	<path class="st1" d="M681.5,761.7h8.1v51.6h-8.1V761.7z"/>
	<path class="st1" d="M732,805.5h-24.4l-3.5,7.8h-8.8l24.3-52.6h0.5l24.3,52.6h-8.8L732,805.5z M728.8,798.5l-9.1-20.2l-9.1,20.2
		H728.8z"/>
	<path class="st1" d="M800.5,760.6v52.7h-8.1v-28.6l-17.1,27.7h-0.1l-17.2-27.8v28.6H750v-52.7h0.6l24.7,37.5l24.6-37.5H800.5z"/>
	<path class="st1" d="M818.5,769.7v13.2H838v8.1h-19.5v14.3h22.6v8.1h-30.7v-51.6h30.7v8H818.5z"/>
	<path class="st1" d="M891,761.6v52.6h-0.4l-33-34.5v33.6h-8.1v-52.5h0.4l32.9,34.4v-33.6H891z"/>
	<path class="st1" d="M933.2,769.8h-13.8v43.5h-8.1v-43.5h-13.8v-8h35.8V769.8z"/>
	<path class="st1" d="M934.6,787.6c0-14.7,12-26.8,26.7-26.8c14.7,0,26.7,12,26.7,26.8c0,14.6-12,26.6-26.7,26.6
		C946.6,814.1,934.6,802.2,934.6,787.6z M979.8,787.5c0-10.2-8.4-18.5-18.5-18.5c-10.2,0-18.5,8.3-18.5,18.5
		c0,10.1,8.3,18.4,18.5,18.4C971.4,805.9,979.8,797.7,979.8,787.5z"/>
</g>
<text transform="matrix(1 0 0 1 364.6313 373.1816)" class="st2 st3 st4">G</text>
</svg>
