<?xml version="1.0" encoding="utf-8"?>
<!-- Generator: Adobe Illustrator 24.2.3, SVG Export Plug-In . SVG Version: 6.00 Build 0)  -->
<svg version="1.1" id="Camada_1" xmlns="http://www.w3.org/2000/svg" xmlns:xlink="http://www.w3.org/1999/xlink" x="0px" y="0px"
	 viewBox="0 0 1000 858.3" style="enable-background:new 0 0 1000 858.3;" xml:space="preserve">
<style type="text/css">
	.st0{fill:#DAA520;}
	.st1{display:none;fill:#FFFFFF;enable-background:new    ;}
	.st2{font-family:'TypoRoundRegularDemo';}
	.st3{font-size:339.2673px;}
</style>
<image style="display:none;overflow:visible;enable-background:new    ;" width="301" height="262" xlink:href="C1328E31.png"  transform="matrix(3.2224 0 0 3.3362 15.0367 -7.8987)">
</image>
<g>
	<path class="st0" d="M499.9,14.7c-228.8,0-414.3,185.6-414.3,414.3c0,133.5,63,252,161,327.9V408.7c0-70,24.7-130.1,74.4-179.5
		c49.6-49.3,109.3-73.8,179.1-73.8c70,0,129.9,24.5,179.1,73.8c49.6,49.6,74.4,109.5,74.4,179.5c0,69.8-24.7,129.5-74.4,179.1
		c-49.3,49.6-108.9,74.4-179.1,74.4H340.2v149.3c49.3,20.6,103.3,32.1,159.9,32.1c228.8,0,414.3-185.6,414.3-414.3
		S728.7,14.7,499.9,14.7z"/>
	<path class="st0" d="M613.2,521.6c31-31,46.6-68.7,46.6-112.9s-15.5-81.9-46.6-113.3c-31.3-31.3-69.1-47-113.3-47
		s-81.9,15.7-113.3,47c-31,31.3-46.4,69.1-46.4,113.3v159.9h159.7C544.1,568.6,581.8,552.9,613.2,521.6z"/>
</g>
<text transform="matrix(1 0 0 1 364.6313 373.1816)" class="st1 st2 st3">G</text>
</svg>
